PathFileType	4	(X/Y/Z)	W16_1_OpenSim.trc																																																																																																																						
DataRate	CameraRate	NumFrames	NumMarkers	Units	OrigDataRate	OrigDataStartFrame	OrigNumFrames																																																																																																																		
100	100	7	40	mm	100	751	3000																																																																																																																		
Frame#	Time	R.ASIS			R.PSIS			S2			L.PSIS			L.ASIS			R.TH1			R.TH2			R.TH3			R.MKnee			R.Knee			R.SH1			R.SH2			R.SH3			R.SH4			R.Ankle			R.MAnkle			R.Heel			R.MT5			R.MT1			L.TH1			L.TH2			L.TH3			L.TH4			L.MKnee			L.Knee			L.SH1			L.SH2			L.SH3			L.Ankle			L.MAnkle			L.Heel			L.MT5			L.MT1			R.Acr			L.Acr			C7			T10			Clav			Sternum			R.Back		
		X1	Y1	Z1	X2	Y2	Z2	X3	Y3	Z3	X4	Y4	Z4	X5	Y5	Z5	X6	Y6	Z6	X7	Y7	Z7	X8	Y8	Z8	X9	Y9	Z9	X10	Y10	Z10	X11	Y11	Z11	X12	Y12	Z12	X13	Y13	Z13	X14	Y14	Z14	X15	Y15	Z15	X16	Y16	Z16	X17	Y17	Z17	X18	Y18	Z18	X19	Y19	Z19	X20	Y20	Z20	X21	Y21	Z21	X22	Y22	Z22	X23	Y23	Z23	X24	Y24	Z24	X25	Y25	Z25	X26	Y26	Z26	X27	Y27	Z27	X28	Y28	Z28	X29	Y29	Z29	X30	Y30	Z30	X31	Y31	Z31	X32	Y32	Z32	X33	Y33	Z33	X34	Y34	Z34	X35	Y35	Z35	X36	Y36	Z36	X37	Y37	Z37	X38	Y38	Z38	X39	Y39	Z39	X40	Y40	Z40
751	7.5	905.7637	1022.9155	-422.3346	714.7131	1029.7844	-519.8703	708.2585	1027.3746	-565.331	715.9389	1036.0598	-614.8556	896.4036	1037.2295	-713.0508	868.97	684.4888	-408.8226	787.7418	684.5767	-394.4109	787.3702	574.7558	-405.0801	803.2183	451.7053	-527.9066	794.3351	461.0922	-410.4469	678.4851	341.0173	-405.2027	594.2385	267.5224	-421.0447	624.4568	404.4289	-399.4517	540.66	327.7519	-405.3367	427.3672	212.8443	-410.7387	462.6538	195.1947	-502.035	371.5229	253.812	-468.4662	436.5562	90.7851	-389.955	463.2714	60.8675	-481.835	976.4229	768.6852	-724.6581	1007.5921	665.2614	-711.402	899.0377	739.8565	-739.9136	932.1915	637.4191	-720.3842	1017.9871	513.9653	-586.0665	1027.7407	519.8132	-695.1645	1047.4279	385.1534	-711.741	966.6403	384.4596	-728.1316	969.8373	274.774	-721.1359	1018.4913	79.5469	-713.6173	1046.4396	90.5379	-613.4728	952.6851	39.5474	-659.8264	1127.3626	32.1794	-727.786	1165.9498	43.9653	-628.2949	882.2261	1433.7159	-423.0575	817.5815	1411.4454	-743.8271	791.912	1466.818	-577.785	754.264	1142.1899	-555.0427	928.6667	1370.8201	-593.6002	956.6333	1226.9426	-580.053	727.5738	1375.0991	-473.7928
752	7.51	905.3978	1024.569	-423.0097	715.1063	1030.8302	-520.9918	708.8092	1028.7236	-566.485	716.6671	1037.7919	-615.935	897.4871	1039.7057	-714.2634	878.0329	685.902	-410.0928	796.9373	683.1342	-395.6639	800.4129	573.3835	-406.1543	820.3593	451.4476	-528.8052	810.8859	460.8945	-411.0337	693.3162	343.6841	-406.1388	606.9448	272.593	-422.408	641.0799	408.6705	-400.2162	555.0888	334.2768	-406.2752	438.9531	224.888	-411.9834	473.5335	204.4503	-503.2449	385.5093	269.2826	-470.0591	440.9373	101.9709	-390.8909	466.2425	68.1136	-481.7831	976.0267	769.3738	-726.0298	1005.8991	665.6231	-712.6834	898.2244	741.5167	-741.1046	930.202	638.6383	-721.5405	1014.4283	514.1621	-586.8976	1024.0007	519.6616	-696.1269	1040.2765	384.4118	-712.5512	959.3546	385.7488	-728.7372	959.8738	275.9327	-721.6835	1003.2362	79.6958	-713.8677	1031.3196	90.6892	-613.8165	937.0869	39.9721	-660.2519	1111.707	31.7555	-728.4103	1150.3922	43.5563	-629.0276	881.6976	1435.5725	-423.899	819.5463	1414.0275	-744.9794	792.387	1469.0245	-579.0017	754.8748	1144.3004	-556.6052	929.1576	1373.0355	-594.1197	957.1099	1229.1119	-580.5165	727.4238	1377.1985	-475.4883
753	7.52	904.6362	1026.3097	-423.3625	715.3482	1032.2712	-522.0991	709.2172	1030.4403	-567.625	717.2781	1039.8363	-617.0004	898.4635	1042.1495	-715.366	886.8373	688.1275	-411.1107	805.923	682.478	-396.9719	813.2969	572.9414	-407.2916	837.3671	452.3377	-529.786	827.4526	461.6688	-411.6576	708.8431	346.7208	-407.2348	620.8029	277.6213	-424.0738	658.0726	412.9218	-401.0876	570.3563	340.3986	-407.4882	452.0288	235.7392	-413.7602	486.2883	213.0891	-504.8596	400.3757	282.2521	-472.3451	449.0222	112.4896	-392.0978	473.5997	75.3663	-481.8792	974.7781	769.6948	-727.3703	1003.1249	665.5834	-713.8566	896.4622	742.9901	-741.9945	927.0911	639.6225	-722.2643	1009.8238	514.188	-587.5373	1019.0035	519.2502	-696.9385	1031.822	383.5667	-713.2514	950.7461	386.7832	-728.6646	948.8141	276.9197	-721.6363	987.7268	79.9077	-713.9321	1015.9221	90.8417	-613.9519	921.3771	40.3031	-660.519	1095.8772	31.693	-728.8586	1134.6506	43.4852	-629.561	880.8867	1437.5186	-424.516	821.4382	1416.7097	-745.9927	792.7354	1471.3986	-580.1196	755.3326	1146.5763	-558.162	929.4973	1375.3577	-594.4345	957.3738	1231.3743	-580.7219	727.0316	1379.4397	-477.2028
754	7.53	903.6393	1028.1849	-423.523	715.4876	1034.1736	-523.1769	709.5193	1032.5778	-568.7352	717.8003	1042.2269	-618.0395	899.338	1044.5715	-716.347	895.2723	691.2083	-411.8563	814.5939	682.6664	-398.326	825.897	573.4837	-408.4347	854.178	454.3425	-530.7459	843.8596	463.4489	-412.2615	724.8501	350.1411	-408.4145	635.6401	282.5023	-425.9128	675.1461	417.1762	-402.135	586.2081	346.0204	-408.9838	466.3722	244.9914	-415.9766	500.6883	220.7748	-506.8014	415.6783	292.2838	-475.1682	460.8267	121.7756	-393.486	485.3782	82.2019	-482.1649	972.7423	769.7517	-728.5898	999.3826	665.2595	-714.8939	893.8602	744.3456	-742.598	922.982	640.4662	-722.6067	1004.2146	514.0661	-588.0043	1012.8857	518.6574	-697.5993	1022.3143	382.6805	-713.8183	941.0981	387.633	-728.1849	936.9099	277.7907	-721.2647	972.0389	80.1529	-713.8846	1000.3243	90.9844	-613.937	905.5806	40.5768	-660.6688	1079.9214	31.8307	-729.1494	1118.7744	43.5833	-629.9113	879.8147	1439.5735	-424.919	823.2186	1419.4861	-746.8663	792.9671	1473.918	-581.1392	755.6517	1149.005	-559.7067	929.702	1377.7869	-594.5616	957.4499	1233.7465	-580.69	726.4253	1381.7966	-478.9367
755	7.54	902.5663	1030.2712	-423.6257	715.5548	1036.5461	-524.2126	709.7376	1035.1332	-569.8016	718.2455	1044.9484	-619.0431	900.1101	1046.9703	-717.1935	903.2727	695.1301	-412.313	822.8939	683.7011	-399.679	838.1376	575.0068	-409.5007	870.7731	457.389	-531.5862	859.9711	466.2145	-412.7872	741.1641	353.9164	-409.594	651.3108	287.1133	-427.7803	692.0693	421.4008	-403.4191	602.4359	351.0403	-410.7473	481.8432	252.3283	-418.5064	516.5275	227.2072	-508.9836	431.2051	299.1656	-478.3132	476.1768	129.3939	-394.9748	501.3219	88.2163	-482.6641	970.0248	769.6421	-729.6274	994.8146	664.7543	-715.803	890.5664	745.6479	-742.9662	918.0315	641.2547	-722.67	997.6747	513.8298	-588.3447	1005.8104	517.9595	-698.144	1012.0207	381.8077	-714.2581	930.7127	388.3563	-727.5948	924.438	278.5912	-720.8354	956.2387	80.4124	-713.802	984.5888	91.1233	-613.8427	889.722	40.8254	-660.7449	1063.8842	32.0514	-729.3245	1102.8041	43.7433	-630.1217	878.5145	1441.7512	-425.1335	824.865	1422.3523	-747.6009	793.0964	1476.5571	-582.0617	755.8467	1151.5697	-561.2341	929.7888	1380.3174	-594.5179	957.3644	1236.2345	-580.4446	725.6433	1384.2465	-480.6779
756	7.55	901.5472	1032.6554	-423.7822	715.5621	1039.3386	-525.1991	709.8815	1038.0483	-570.8143	718.6109	1047.9406	-620.006	900.7803	1049.3345	-717.8959	910.8111	699.8303	-412.4611	830.8079	685.5374	-400.9571	849.9737	577.4617	-410.3983	887.1312	461.3808	-532.2234	875.6857	469.8963	-413.1768	757.6631	357.9541	-410.6889	667.7085	291.3055	-429.5388	708.6852	425.5098	-404.9537	618.8949	355.3289	-412.7212	498.3591	257.5314	-421.204	533.6537	232.1336	-511.3058	446.9711	302.8862	-481.5622	494.6997	135.0515	-396.4987	520.9385	93.0646	-483.3674	966.7541	769.445	-730.4586	989.5752	664.152	-716.6146	886.7443	746.9501	-743.176	912.4153	642.0524	-722.5892	990.2939	513.5107	-588.6185	997.9464	517.221	-698.6219	1001.181	380.9893	-714.596	919.8531	388.9948	-727.1411	911.6486	279.3504	-720.5504	940.3781	80.6786	-713.7459	968.7644	91.2729	-613.7366	873.8243	41.0755	-660.785	1047.8043	32.2799	-729.4344	1086.7714	43.9059	-630.2415	877.0265	1444.0546	-425.1915	826.3748	1425.2993	-748.2017	793.1408	1479.2837	-582.8892	755.9306	1154.2448	-562.7385	929.7747	1382.9358	-594.3198	957.1519	1238.8323	-580.0116	724.7289	1386.7665	-482.4054
757	7.56	900.6625	1035.4043	-424.0646	715.5101	1042.452	-526.1316	709.9513	1041.2227	-571.7672	718.8859	1051.1102	-620.9238	901.3528	1051.6467	-718.4521	917.8894	705.2095	-412.2877	838.3463	688.0966	-402.0803	861.3769	580.7637	-411.0474	903.2037	466.2057	-532.5919	890.9304	474.3828	-413.3737	774.2668	362.1062	-411.6201	684.7589	294.9185	-431.0736	724.9095	429.3617	-406.6773	635.5007	358.7309	-414.8034	515.8491	260.4869	-423.9217	551.9642	235.3704	-513.6572	463.1297	303.5779	-484.7453	515.8833	138.598	-398.0017	543.6153	96.5021	-484.2254	963.0626	769.2151	-731.0886	983.8179	663.5179	-717.366	882.5538	748.289	-743.3171	906.3057	642.9011	-722.5043	982.1669	513.1294	-588.8862	989.4435	516.4862	-699.0823	989.9702	380.2482	-714.8743	908.7001	389.5758	-726.9719	898.7128	280.0841	-720.5154	924.4974	80.9501	-713.7529	952.8912	91.4473	-613.6688	857.9057	41.3465	-660.8149	1031.7122	32.475	-729.5245	1070.7034	44.0434	-630.3128	875.3929	1446.4722	-425.125	827.7633	1428.3084	-748.6772	793.119	1482.0565	-583.6249	755.9149	1156.9943	-564.213	929.6761	1385.6201	-593.9846	956.8612	1241.5248	-579.419	723.726	1389.3295	-484.096
